<svg xmlns="http://www.w3.org/2000/svg" viewBox="0 0 120 120" fill="none" aria-hidden="true">
  <defs>
    <linearGradient id="g" x1="18" y1="14" x2="102" y2="106" gradientUnits="userSpaceOnUse">
      <stop stop-color="#bea042"/>
      <stop offset="0.55" stop-color="#9c70b2"/>
      <stop offset="1" stop-color="#e3d0ea"/>
    </linearGradient>
  </defs>
  <rect x="10" y="10" width="100" height="100" rx="28" fill="#3a1d36" stroke="url(#g)" stroke-width="2"/>
  <!-- Stylized low-poly gorilla silhouette -->
  <path fill="url(#g)" opacity="0.95" d="M60 28c-10 0-18 6-22 14-4-2-9-1-12 2-4 4-4 11 0 15 2 2 5 3 8 3h2c-3 8-4 17-2 26 2 12 10 22 22 26l2 8c1 4 4 6 8 6s7-2 8-6l2-8c12-4 20-14 22-26 2-9 1-18-2-26h2c3 0 6-1 8-3 4-4 4-11 0-15-3-3-8-4-12-2-4-8-12-14-22-14Zm-9 18a6 6 0 1 1 0 12 6 6 0 0 1 0-12Zm18 0a6 6 0 1 1 0 12 6 6 0 0 1 0-12ZM52 72c4 6 12 6 16 0-2 8-12 12-8 0-4-12-8-8Z"/>
</svg>
